<svg width="62" height="60" viewBox="0 0 62 60" fill="none" xmlns="http://www.w3.org/2000/svg">
<path d="M61.8377 32.8871C61.2814 27.2423 58.7816 21.9206 54.7986 17.9022C51.3948 14.4684 47.2286 12.2617 42.8448 11.2806V8.17869C44.6353 7.7293 45.9662 6.09425 45.9662 4.15081C45.9662 1.86201 44.1206 0 41.8518 0H33.139C30.8702 0 29.0246 1.86201 29.0246 4.15081C29.0246 6.09413 30.3555 7.72918 32.1458 8.17869V11.2892C27.7755 12.2746 23.6231 14.4782 20.2289 17.9023C19.4862 18.6517 18.8012 19.4378 18.1743 20.2547C18.1439 20.2524 18.1135 20.2501 18.0826 20.2501H9.45913C8.7909 20.2501 8.24901 20.7967 8.24901 21.4709C8.24901 22.1452 8.7909 22.6918 9.45913 22.6918H16.5277C15.6404 24.1903 14.925 25.7641 14.3804 27.3841H1.21012C0.541891 27.3841 0 27.9307 0 28.605C0 29.2792 0.541891 29.8258 1.21012 29.8258H13.6966C13.3478 31.3703 13.1477 32.9421 13.096 34.5183H7.74476C7.07653 34.5183 6.53464 35.0648 6.53464 35.7391C6.53464 36.4134 7.07653 36.9599 7.74476 36.9599H13.1346C13.2368 38.5402 13.4886 40.1121 13.8902 41.6524H6.05059C5.38236 41.6524 4.84047 42.199 4.84047 42.8733C4.84047 43.5475 5.38236 44.0941 6.05059 44.0941H14.6625C15.8496 47.2623 17.7049 50.2317 20.2289 52.7781C24.2158 56.8002 29.4963 59.3227 35.0974 59.881C35.8968 59.9606 36.6968 60 37.4958 60C42.2179 60 46.88 58.6213 50.8359 56.0224C51.3959 55.6545 51.5543 54.8982 51.1896 54.3332C50.8249 53.7682 50.0752 53.6084 49.5151 53.9763C40.8559 59.665 29.259 58.435 21.9403 51.0516C13.3531 42.3883 13.3531 28.2923 21.9403 19.629C30.5274 10.9658 44.4998 10.9658 53.0872 19.629C60.3962 27.0027 61.622 38.6923 56.0019 47.4239C55.6379 47.9894 55.7972 48.7456 56.3576 49.1127C56.9184 49.4799 57.6677 49.3191 58.0316 48.7536C61.0344 44.0882 62.3861 38.4535 61.8377 32.8871ZM31.4448 4.15093C31.4448 3.20846 32.2048 2.44178 33.139 2.44178H41.8518C42.786 2.44178 43.546 3.20846 43.546 4.15093C43.546 5.09341 42.786 5.86009 41.8518 5.86009H41.6347H33.3559H33.139C32.2048 5.86009 31.4448 5.09329 31.4448 4.15093ZM34.5661 10.8695V8.30175H40.4246V10.8651C38.4792 10.6317 36.5111 10.6332 34.5661 10.8695Z" fill="black"/>
<path d="M53.9434 50.6934C53.624 50.6934 53.313 50.824 53.088 51.0511C52.8617 51.2782 52.7333 51.5932 52.7333 51.9142C52.7333 52.2353 52.8617 52.5503 53.088 52.7773C53.313 53.0056 53.6241 53.135 53.9434 53.135C54.2617 53.135 54.5727 53.0056 54.799 52.7773C55.0241 52.5503 55.1535 52.2353 55.1535 51.9142C55.1535 51.5932 55.0242 51.2782 54.799 51.0511C54.5727 50.824 54.2616 50.6934 53.9434 50.6934Z" fill="black"/>
<path d="M37.5138 16.4015C27.1627 16.4015 18.7413 24.8972 18.7413 35.3401C18.7413 45.7829 27.1627 54.2786 37.5138 54.2786C47.8649 54.2786 56.2862 45.7829 56.2862 35.3401C56.2862 24.8972 47.8649 16.4015 37.5138 16.4015ZM37.5138 51.837C28.4971 51.837 21.1616 44.4364 21.1616 35.3401C21.1616 26.2437 28.4971 18.8431 37.5138 18.8431C46.5305 18.8431 53.866 26.2437 53.866 35.3401C53.866 44.4364 46.5305 51.837 37.5138 51.837Z" fill="black"/>
<path d="M45.1685 25.8911L39.1748 31.9377C38.6736 31.6877 38.1098 31.5464 37.5138 31.5464C36.9177 31.5464 36.354 31.6877 35.8528 31.9377L33.1703 29.2315C32.6976 28.7548 31.9316 28.7548 31.4588 29.2315C30.9863 29.7082 30.9863 30.4812 31.4588 30.958L34.1413 33.6642C33.8934 34.1699 33.7535 34.7386 33.7535 35.3399C33.7535 37.4317 35.4403 39.1335 37.5138 39.1335C39.5873 39.1335 41.2741 37.4317 41.2741 35.3399C41.2741 34.7386 41.1341 34.1699 40.8863 33.6642L46.704 27.7949L46.8799 27.6176C47.3524 27.1408 47.3524 26.3678 46.8799 25.8911C46.4073 25.4143 45.6413 25.4143 45.1685 25.8911ZM37.5138 36.692C36.7749 36.692 36.1737 36.0855 36.1737 35.34C36.1737 34.5946 36.7749 33.9881 37.5138 33.9881C38.2527 33.9881 38.8539 34.5946 38.8539 35.34C38.8539 36.0855 38.2527 36.692 37.5138 36.692Z" fill="black"/>
<path d="M50.4522 34.1341H49.3311C48.6629 34.1341 48.121 34.6807 48.121 35.3549C48.121 36.0292 48.6629 36.5757 49.3311 36.5757H50.4522C51.1204 36.5757 51.6623 36.0292 51.6623 35.3549C51.6623 34.6807 51.1204 34.1341 50.4522 34.1341Z" fill="black"/>
<path d="M25.6963 34.1043H24.5753C23.9071 34.1043 23.3652 34.6509 23.3652 35.3251C23.3652 35.9994 23.9071 36.5459 24.5753 36.5459H25.6963C26.3646 36.5459 26.9064 35.9994 26.9064 35.3251C26.9064 34.6509 26.3646 34.1043 25.6963 34.1043Z" fill="black"/>
<path d="M37.5285 24.6388C38.1967 24.6388 38.7386 24.0922 38.7386 23.418V22.287C38.7386 21.6128 38.1967 21.0662 37.5285 21.0662C36.8603 21.0662 36.3184 21.6128 36.3184 22.287V23.418C36.3184 24.0922 36.8603 24.6388 37.5285 24.6388Z" fill="black"/>
<path d="M37.499 46.0412C36.8308 46.0412 36.2889 46.5878 36.2889 47.262V48.393C36.2889 49.0672 36.8308 49.6138 37.499 49.6138C38.1672 49.6138 38.7091 49.0672 38.7091 48.393V47.262C38.7091 46.5878 38.1672 46.0412 37.499 46.0412Z" fill="black"/>
<path d="M1.2101 41.652C0.891843 41.652 0.579638 41.7826 0.354559 42.0097C0.129481 42.2367 0 42.5517 0 42.8728C0 43.1951 0.12936 43.5088 0.354559 43.7359C0.579759 43.963 0.891843 44.0936 1.2101 44.0936C1.52836 44.0936 1.84056 43.963 2.06552 43.7359C2.2906 43.5088 2.4202 43.1939 2.4202 42.8728C2.4202 42.5517 2.29072 42.2367 2.06552 42.0097C1.84056 41.7826 1.52836 41.652 1.2101 41.652Z" fill="black"/>
</svg>
