<svg width="60" height="60" viewBox="0 0 60 60" fill="none" xmlns="http://www.w3.org/2000/svg">
<path d="M59.1318 0.343242C58.9139 0.123515 58.6184 0 58.3102 0L29.7357 0.00152343C29.0943 0.00152343 28.5743 0.526288 28.5743 1.1734V4.5246L17.5636 7.50104C16.9439 7.66862 16.5762 8.31116 16.7423 8.93623L22.4488 30.4216L17.5122 35.4019C16.8839 34.4764 15.8289 33.8677 14.6356 33.8677H3.48466C1.56316 33.8677 0 35.4448 0 37.3832V56.4843C0 58.4228 1.56316 59.9999 3.48466 59.9999H14.6357C16.2681 59.9999 17.6413 58.8613 18.0177 57.3304L19.3988 58.5455C20.4651 59.4834 21.8311 60 23.2458 60H58.3105C58.9519 60 59.4721 59.4752 59.4721 58.8281V1.17187C59.4718 0.861092 59.3496 0.562968 59.1318 0.343242ZM15.7971 56.4844C15.7971 57.1304 15.276 57.6563 14.6355 57.6563H3.48455C2.84405 57.6563 2.32295 57.1306 2.32295 56.4844V37.3833C2.32295 36.7372 2.84405 36.2115 3.48455 36.2115H7.89849V49.7108C7.89849 50.358 8.41865 50.8827 9.06008 50.8827C9.70151 50.8827 10.2217 50.358 10.2217 49.7108V36.2115H14.6356C15.2761 36.2115 15.7972 36.7372 15.7972 37.3833V56.4844H15.7971ZM19.2869 9.46158L28.5743 6.95096V11.2933L27.7958 11.5038C27.4981 11.5843 27.2445 11.7806 27.0904 12.0498C26.9364 12.319 26.8946 12.6388 26.9744 12.939C27.4208 14.6196 26.4287 16.3531 24.7628 16.8035C24.4649 16.8841 24.2109 17.0807 24.0569 17.3505C23.903 17.6202 23.8616 17.9406 23.9421 18.241L28.4698 35.1556H26.1385L24.9371 30.4137C24.8989 30.2628 24.832 30.1237 24.7424 30.0028L19.2869 9.46158ZM28.5743 16.6674V26.5558L26.4556 18.6416C27.3407 18.1806 28.0649 17.4908 28.5743 16.6674ZM45.2622 57.6561H23.2456C22.3924 57.6561 21.5685 57.3447 20.9254 56.779L18.1203 54.3109V38.1031L23.1916 32.9869L24.1113 36.6174C24.2428 37.1362 24.7059 37.499 25.2367 37.499L48.0741 37.5004C48.9708 37.5004 49.7003 38.2363 49.7003 39.141C49.7003 40.0457 48.9708 40.7816 48.0741 40.7816H36.3722C35.7307 40.7816 35.2106 41.3064 35.2106 41.9535C35.2106 42.6006 35.7307 43.1254 36.3722 43.1254H51.7098C52.6066 43.1254 53.3361 43.8613 53.3361 44.766C53.3361 45.6707 52.6066 46.4066 51.7098 46.4066H36.3722C35.7307 46.4066 35.2106 46.9314 35.2106 47.5785C35.2106 48.2256 35.7307 48.7504 36.3722 48.7504H49.2244C50.1211 48.7504 50.8506 49.4863 50.8506 50.391C50.8506 51.2957 50.1211 52.0316 49.2244 52.0316H36.3722C35.7307 52.0316 35.2106 52.5564 35.2106 53.2035C35.2106 53.8506 35.7307 54.3754 36.3722 54.3754H45.2622C46.1589 54.3754 46.8884 55.1113 46.8884 56.016C46.8883 56.9202 46.1588 57.6561 45.2622 57.6561ZM57.1489 57.6561H57.1488H48.8598C49.085 57.1554 49.2115 56.6003 49.2115 56.0155C49.2115 55.4308 49.085 54.8756 48.8598 54.3749H49.2244C51.402 54.3749 53.1737 52.5876 53.1737 50.3906C53.1737 49.7499 53.0221 49.1444 52.7545 48.6074C54.4267 48.144 55.659 46.5978 55.659 44.7658C55.659 43.877 55.3689 43.0554 54.8795 42.3921V27.5398C54.8795 26.8927 54.3593 26.368 53.7179 26.368C53.0765 26.368 52.5563 26.8927 52.5563 27.5398V40.8748C52.2833 40.8145 52.0002 40.7816 51.7096 40.7816H51.6715C51.8967 40.2809 52.0232 39.7258 52.0232 39.141C52.0232 36.944 50.2516 35.1568 48.0739 35.1568H46.2067C48.1894 34.299 49.5819 32.3108 49.5819 29.9999C49.5819 26.9075 47.0882 24.3916 44.0229 24.3916C40.9577 24.3916 38.4638 26.9075 38.4638 29.9999C38.4638 32.3108 39.8565 34.299 41.8391 35.1568H35.4895V12.8745C37.5645 12.4183 39.2019 10.7666 39.654 8.67303H48.3916C48.8437 10.7666 50.4811 12.4183 52.5562 12.8745V16.5179C52.5562 17.165 53.0763 17.6898 53.7178 17.6898C54.3592 17.6898 54.8794 17.165 54.8794 16.5179V11.8283C54.8794 11.1812 54.3592 10.6564 53.7178 10.6564C51.9932 10.6564 50.5903 9.24092 50.5903 7.50116C50.5903 6.85405 50.0701 6.32928 49.4287 6.32928H38.6171C37.9756 6.32928 37.4555 6.85405 37.4555 7.50116C37.4555 9.24104 36.0525 10.6564 34.328 10.6564C33.6866 10.6564 33.1664 11.1812 33.1664 11.8283V35.1567H30.8976V2.34503L57.1489 2.34375V57.6561ZM44.0231 33.2645C42.2388 33.2645 40.7873 31.8001 40.7873 30.0001C40.7873 28.2001 42.2389 26.7355 44.0231 26.7355C45.8073 26.7355 47.259 28.1999 47.259 29.9999C47.259 31.7999 45.8074 33.2645 44.0231 33.2645Z" fill="black"/>
</svg>
