<svg width="60" height="60" viewBox="0 0 60 60" fill="none" xmlns="http://www.w3.org/2000/svg">
<path d="M59 54.0001H56V35.0001C55.9996 34.4479 55.5515 34.0005 54.9992 34.0009C54.6734 34.0011 54.368 34.1601 54.181 34.4271L40.181 54.427C39.8645 54.8797 39.9749 55.5032 40.4275 55.8195C40.5954 55.9369 40.7951 55.9999 41 56H54V59C54 59.5523 54.4477 60 55 60C55.5522 60 56 59.5523 56 59V56H59C59.5522 56 60 55.5523 60 55C60 54.4478 59.5522 54.0001 59 54.0001ZM54 54.0001H42.92L54 38.1721V54.0001Z" fill="black"/>
<path d="M41 58H29.161L40.168 45.039C40.193 45.0093 40.2164 44.9783 40.238 44.946C42.3087 41.8813 41.619 37.7319 38.668 35.502C35.0799 32.9239 30.0811 33.7428 27.5031 37.3309C26.5255 38.6915 25.9998 40.3246 26 42C26 42.5523 26.4478 43 27 43C27.5523 43 28 42.5523 28 42C27.9996 38.6863 30.6857 35.9998 33.9994 35.9994C35.2554 35.9993 36.4797 36.3933 37.5 37.126C39.5671 38.7099 40.0485 41.6269 38.6 43.791L26.238 58.353C25.8806 58.7742 25.9324 59.4052 26.3535 59.7625C26.5341 59.9158 26.7631 59.9999 27 60H41C41.5522 60 42 59.5523 42 59C42 58.4478 41.5522 58 41 58Z" fill="black"/>
<path d="M27.022 53.019C27.0429 52.4671 26.6122 52.0029 26.0604 51.982C26.0602 51.982 26.0601 51.982 26.06 51.982C13.0137 51.4978 2.54262 41.0454 2.035 28H6C6.55225 28 7 27.5523 7 27C7 26.4478 6.55225 26 6 26H2.035C2.53537 12.9776 12.9775 2.53588 26 2.036V5C26 5.55225 26.4477 6 27 6C27.5522 6 28 5.55225 28 5V2.036C40.8442 2.53275 51.2107 12.7035 51.952 25.536L48.052 21.636C47.6547 21.2523 47.0217 21.2633 46.638 21.6605C46.2637 22.048 46.2637 22.6624 46.638 23.05L52.22 28.632C52.3251 28.7593 52.4606 28.8579 52.614 28.919C52.6531 28.9308 52.6929 28.9405 52.733 28.948C52.8016 28.9728 52.8726 28.9899 52.945 28.999C52.955 28.999 52.964 28.999 52.974 28.999C52.984 28.999 52.993 28.999 53.002 28.999C53.0781 28.9933 53.1534 28.9785 53.226 28.955C53.2671 28.95 53.3079 28.9424 53.348 28.932C53.4834 28.8839 53.6066 28.8068 53.709 28.706L59.367 23.05C59.7506 22.6528 59.7397 22.0198 59.3425 21.636C58.955 21.2618 58.3406 21.2618 57.953 21.636L53.956 25.63C53.2416 11.2963 41.4225 0.035125 27.071 0.014C27.046 0.013 27.025 0 27 0C26.975 0 26.954 0.013 26.929 0.014C12.0727 0.034375 0.034375 12.0728 0.014 26.929C0.014 26.954 0 26.975 0 27C0 27.025 0.013 27.046 0.014 27.071C0.038875 41.5606 11.5064 53.4423 25.986 53.981H26.023C26.5604 53.9809 27.0016 53.556 27.022 53.019Z" fill="black"/>
<path d="M40.435 13.565C40.0445 13.1746 39.4115 13.1746 39.021 13.565L28.275 24.31C27.4631 23.948 26.5357 23.948 25.724 24.31L20.636 19.222C20.2387 18.8384 19.6056 18.8494 19.222 19.2466C18.8477 19.6341 18.8477 20.2485 19.222 20.636L24.3 25.714C23.587 27.2065 24.219 28.9945 25.7116 29.7074C26.8572 30.2546 28.2235 30.02 29.121 29.122C30.0234 28.2272 30.2557 26.8572 29.699 25.715L40.435 14.979C40.8254 14.5885 40.8254 13.9555 40.435 13.565ZM27.7072 27.7067C27.7071 27.7069 27.7071 27.7069 27.707 27.707C27.3115 28.0851 26.6885 28.0851 26.293 27.707C25.9024 27.3165 25.9024 26.6834 26.2927 26.2927C26.6832 25.9021 27.3164 25.9021 27.707 26.2925C28.0976 26.683 28.0976 27.3162 27.7072 27.7067Z" fill="black"/>
</svg>
