<svg width="60" height="60" viewBox="0 0 60 60" fill="none" xmlns="http://www.w3.org/2000/svg">
<path d="M22.9692 10.6636C20.0615 10.6636 17.6958 13.0293 17.6958 15.9371C17.6958 18.8448 20.0615 21.2105 22.9692 21.2105C25.877 21.2105 28.2427 18.8448 28.2427 15.9371C28.2427 13.0293 25.877 10.6636 22.9692 10.6636ZM22.9692 17.6949C22 17.6949 21.2114 16.9063 21.2114 15.9371C21.2114 14.9678 22 14.1793 22.9692 14.1793C23.9385 14.1793 24.727 14.9678 24.727 15.9371C24.727 16.9063 23.9385 17.6949 22.9692 17.6949Z" fill="black"/>
<path d="M37.0317 24.7261C34.124 24.7261 31.7583 27.0918 31.7583 29.9996C31.7583 32.9073 34.124 35.273 37.0317 35.273C39.9395 35.273 42.3052 32.9073 42.3052 29.9996C42.3052 27.0918 39.9395 24.7261 37.0317 24.7261ZM37.0317 31.7574C36.0625 31.7574 35.2739 30.9688 35.2739 29.9996C35.2739 29.0303 36.0625 28.2418 37.0317 28.2418C38.001 28.2418 38.7895 29.0303 38.7895 29.9996C38.7895 30.9688 38.001 31.7574 37.0317 31.7574Z" fill="black"/>
<path d="M38.0068 10.9588C37.199 10.4205 36.1076 10.6387 35.5691 11.4464L21.5066 32.5402C20.968 33.348 21.1864 34.4393 21.9941 34.9778C22.8024 35.5165 23.8936 35.2976 24.4318 34.4902L38.4943 13.3964C39.0328 12.5887 38.8146 11.4973 38.0068 10.9588Z" fill="black"/>
<path d="M58.2426 35.2734H49.3363V1.75781C49.3363 0.787031 48.5493 0 47.5785 0H12.4223C11.4515 0 10.6644 0.787031 10.6644 1.75781V35.2734H1.75819C0.077842 35.2734 -0.645556 37.4243 0.702568 38.4368L28.9447 59.6477C29.5701 60.1174 30.4307 60.1174 31.056 59.6477L59.2982 38.4368C60.6417 37.4276 59.9285 35.2734 58.2426 35.2734ZM30.0004 56.0437L7.02577 38.7891H12.4223C13.393 38.7891 14.1801 38.002 14.1801 37.0312V3.51562H45.8207V37.0312C45.8207 38.002 46.6077 38.7891 47.5785 38.7891H52.975L30.0004 56.0437Z" fill="black"/>
</svg>
